<svg class="cretalogo"
   xmlns:dc="http://purl.org/dc/elements/1.1/"
   xmlns:cc="http://creativecommons.org/ns#"
   xmlns:rdf="http://www.w3.org/1999/02/22-rdf-syntax-ns#"
   xmlns:svg="http://www.w3.org/2000/svg"
   xmlns="http://www.w3.org/2000/svg"
   id="svg96"
   version="1.1"
   viewBox="0 0 767 200"
   height="50pt"
   width="767pt">
  <metadata
     id="metadata100">
    <rdf:RDF>
      <cc:Work
         rdf:about="">
        <dc:format>image/svg+xml</dc:format>
        <dc:type
           rdf:resource="http://purl.org/dc/dcmitype/StillImage" />
        <dc:title></dc:title>
      </cc:Work>
    </rdf:RDF>
  </metadata>
  <defs
     id="defs13">
    <clipPath
       id="clip1">
      <path class="col1"
         id="path10"
         d="M 582 0.394531 L 766.046875 0.394531 L 766.046875 185 L 582 185 Z M 582 0.394531 " />
    </clipPath>
  </defs>
  <g
     id="surface1">
    <path class="col1" 
       id="path15"
       d="M 404.210938 113.910156 C 402.859375 113.910156 401.753906 115.015625 401.753906 116.367188 L 401.753906 222.917969 C 401.753906 224.269531 400.652344 225.375 399.300781 225.375 L 391.933594 225.375 C 390.582031 225.375 389.476562 224.269531 389.476562 222.917969 L 389.476562 116.367188 C 389.476562 115.015625 388.375 113.910156 387.023438 113.910156 L 348.589844 113.910156 C 347.238281 113.910156 346.132812 112.804688 346.132812 111.453125 L 346.132812 105.25 C 346.132812 103.898438 347.238281 102.792969 348.589844 102.792969 L 442.644531 102.792969 C 443.996094 102.792969 445.097656 103.898438 445.097656 105.25 L 445.097656 111.453125 C 445.097656 112.804688 443.996094 113.910156 442.644531 113.910156 L 404.210938 113.910156 "
       style=" stroke:none;fill-rule:nonzero;fill-opacity:1;" />
    <path class="col1 subline"
       id="path17"
       d="M 20.167969 286.832031 C 19.042969 287.375 16.554688 288 13.367188 288 C 5.050781 288 0 282.792969 0 274.789062 C 0 266.164062 6.023438 260.957031 14.027344 260.957031 C 17.175781 260.957031 19.390625 261.617188 20.363281 262.117188 L 19.351562 265.929688 C 18.109375 265.386719 16.359375 264.917969 14.222656 264.917969 C 8.898438 264.917969 5.050781 268.257812 5.050781 274.554688 C 5.050781 280.34375 8.394531 283.996094 14.183594 283.996094 C 16.085938 283.996094 18.109375 283.609375 19.390625 283.0625 L 20.167969 286.832031 "
       style=" stroke:none;fill-rule:nonzero;fill-opacity:1;" />
    <path class="col1 subline"
       id="path19"
       d="M 40.84375 275.953125 L 30.976562 275.953125 L 30.976562 283.648438 L 42.011719 283.648438 L 42.011719 287.570312 L 26.195312 287.570312 L 26.195312 261.378906 L 41.425781 261.378906 L 41.425781 265.308594 L 30.976562 265.308594 L 30.976562 272.070312 L 40.84375 272.070312 L 40.84375 275.953125 "
       style=" stroke:none;fill-rule:nonzero;fill-opacity:1;" />
    <path class="col1 subline"
       id="path21"
       d="M 48.113281 287.570312 L 48.113281 261.378906 L 53.59375 261.378906 L 60.351562 272.609375 C 62.066406 275.527344 63.617188 278.558594 64.820312 281.390625 L 64.902344 281.390625 C 64.550781 277.898438 64.472656 274.515625 64.472656 270.511719 L 64.472656 261.378906 L 68.902344 261.378906 L 68.902344 287.570312 L 63.929688 287.570312 L 57.089844 276.03125 C 55.417969 273.15625 53.710938 269.96875 52.425781 267.019531 L 52.273438 267.054688 C 52.46875 270.4375 52.542969 273.894531 52.542969 278.207031 L 52.542969 287.570312 L 48.113281 287.570312 "
       style=" stroke:none;fill-rule:nonzero;fill-opacity:1;" />
    <path class="col1 subline"
       id="path23"
       d="M 81.378906 265.386719 L 73.917969 265.386719 L 73.917969 261.382812 L 93.699219 261.382812 L 93.699219 265.386719 L 86.160156 265.386719 L 86.160156 287.570312 L 81.378906 287.570312 L 81.378906 265.386719 "
       style=" stroke:none;fill-rule:nonzero;fill-opacity:1;" />
    <path class="col1 subline"
       id="path25"
       d="M 113.363281 275.953125 L 103.496094 275.953125 L 103.496094 283.648438 L 114.53125 283.648438 L 114.53125 287.570312 L 98.714844 287.570312 L 98.714844 261.378906 L 113.949219 261.378906 L 113.949219 265.308594 L 103.496094 265.308594 L 103.496094 272.070312 L 113.363281 272.070312 L 113.363281 275.953125 "
       style=" stroke:none;fill-rule:nonzero;fill-opacity:1;" />
    <path class="col1 subline"
       id="path27"
       d="M 120.675781 261.769531 C 122.5 261.421875 125.140625 261.1875 127.898438 261.1875 C 131.671875 261.1875 134.195312 261.808594 135.980469 263.285156 C 137.421875 264.488281 138.238281 266.316406 138.238281 268.570312 C 138.238281 271.949219 135.945312 274.242188 133.457031 275.101562 L 133.457031 275.214844 C 135.359375 275.914062 136.488281 277.742188 137.109375 280.265625 C 137.964844 283.53125 138.664062 286.5625 139.171875 287.570312 L 134.273438 287.570312 C 133.886719 286.792969 133.222656 284.65625 132.523438 281.390625 C 131.75 277.972656 130.542969 276.886719 127.824219 276.8125 L 125.414062 276.8125 L 125.414062 287.570312 L 120.675781 287.570312 Z M 125.414062 273.308594 L 128.25 273.308594 C 131.476562 273.308594 133.457031 271.601562 133.457031 269 C 133.457031 266.164062 131.476562 264.796875 128.367188 264.796875 C 126.855469 264.796875 125.882812 264.921875 125.414062 265.035156 L 125.414062 273.308594 "
       style=" stroke:none;fill-rule:nonzero;fill-opacity:1;" />
    <path class="col1 subline"
       id="path29"
       d="M 154.71875 261.378906 L 169.871094 261.378906 L 169.871094 265.308594 L 159.496094 265.308594 L 159.496094 272.535156 L 169.132812 272.535156 L 169.132812 276.417969 L 159.496094 276.417969 L 159.496094 287.570312 L 154.71875 287.570312 L 154.71875 261.378906 "
       style=" stroke:none;fill-rule:nonzero;fill-opacity:1;" />
    <path class="col1 subline"
       id="path31"
       d="M 199.679688 274.207031 C 199.679688 282.984375 194.355469 288 187.167969 288 C 179.746094 288 175.082031 282.328125 175.082031 274.671875 C 175.082031 266.589844 180.175781 260.917969 187.558594 260.917969 C 195.171875 260.917969 199.679688 266.707031 199.679688 274.207031 M 180.136719 274.554688 C 180.136719 279.917969 182.816406 284.152344 187.398438 284.152344 C 192.023438 284.152344 194.628906 279.839844 194.628906 274.363281 C 194.628906 269.425781 192.179688 264.761719 187.398438 264.761719 C 182.660156 264.761719 180.136719 269.152344 180.136719 274.554688 "
       style=" stroke:none;fill-rule:nonzero;fill-opacity:1;" />
    <path class="col1 subline"
       id="path33"
       d="M 205.746094 261.769531 C 207.574219 261.421875 210.214844 261.1875 212.972656 261.1875 C 216.742188 261.1875 219.269531 261.808594 221.054688 263.285156 C 222.496094 264.488281 223.308594 266.316406 223.308594 268.570312 C 223.308594 271.949219 221.019531 274.242188 218.527344 275.101562 L 218.527344 275.214844 C 220.433594 275.914062 221.5625 277.742188 222.183594 280.265625 C 223.039062 283.53125 223.738281 286.5625 224.242188 287.570312 L 219.347656 287.570312 C 218.957031 286.792969 218.296875 284.65625 217.597656 281.390625 C 216.824219 277.972656 215.617188 276.886719 212.898438 276.8125 L 210.488281 276.8125 L 210.488281 287.570312 L 205.746094 287.570312 Z M 210.488281 273.308594 L 213.324219 273.308594 C 216.550781 273.308594 218.527344 271.601562 218.527344 269 C 218.527344 266.164062 216.550781 264.796875 213.441406 264.796875 C 211.925781 264.796875 210.953125 264.921875 210.488281 265.035156 L 210.488281 273.308594 "
       style=" stroke:none;fill-rule:nonzero;fill-opacity:1;" />
    <path class="col1 subline"
       id="path35"
       d="M 239.789062 261.769531 C 241.621094 261.421875 244.261719 261.1875 247.019531 261.1875 C 250.789062 261.1875 253.3125 261.808594 255.101562 263.285156 C 256.539062 264.488281 257.355469 266.316406 257.355469 268.570312 C 257.355469 271.949219 255.0625 274.242188 252.578125 275.101562 L 252.578125 275.214844 C 254.480469 275.914062 255.605469 277.742188 256.226562 280.265625 C 257.082031 283.53125 257.78125 286.5625 258.285156 287.570312 L 253.390625 287.570312 C 253.003906 286.792969 252.339844 284.65625 251.640625 281.390625 C 250.867188 277.972656 249.660156 276.886719 246.941406 276.8125 L 244.53125 276.8125 L 244.53125 287.570312 L 239.789062 287.570312 Z M 244.53125 273.308594 L 247.367188 273.308594 C 250.59375 273.308594 252.578125 271.601562 252.578125 269 C 252.578125 266.164062 250.59375 264.796875 247.484375 264.796875 C 245.972656 264.796875 245 264.921875 244.53125 265.035156 L 244.53125 273.308594 "
       style=" stroke:none;fill-rule:nonzero;fill-opacity:1;" />
    <path class="col1 subline"
       id="path37"
       d="M 278.496094 275.953125 L 268.628906 275.953125 L 268.628906 283.648438 L 279.664062 283.648438 L 279.664062 287.570312 L 263.847656 287.570312 L 263.847656 261.378906 L 279.082031 261.378906 L 279.082031 265.308594 L 268.628906 265.308594 L 268.628906 272.070312 L 278.496094 272.070312 L 278.496094 275.953125 "
       style=" stroke:none;fill-rule:nonzero;fill-opacity:1;" />
    <path class="col1 subline"
       id="path39"
       d="M 285.808594 261.378906 L 300.964844 261.378906 L 300.964844 265.308594 L 290.585938 265.308594 L 290.585938 272.535156 L 300.222656 272.535156 L 300.222656 276.417969 L 290.585938 276.417969 L 290.585938 287.570312 L 285.808594 287.570312 L 285.808594 261.378906 "
       style=" stroke:none;fill-rule:nonzero;fill-opacity:1;" />
    <path class="col1 subline"
       id="path41"
       d="M 307.53125 261.378906 L 312.3125 261.378906 L 312.3125 283.570312 L 323.074219 283.570312 L 323.074219 287.570312 L 307.53125 287.570312 L 307.53125 261.378906 "
       style=" stroke:none;fill-rule:nonzero;fill-opacity:1;" />
    <path class="col1 subline"
       id="path43"
       d="M 343.285156 275.953125 L 333.414062 275.953125 L 333.414062 283.648438 L 344.449219 283.648438 L 344.449219 287.570312 L 328.636719 287.570312 L 328.636719 261.378906 L 343.867188 261.378906 L 343.867188 265.308594 L 333.414062 265.308594 L 333.414062 272.070312 L 343.285156 272.070312 L 343.285156 275.953125 "
       style=" stroke:none;fill-rule:nonzero;fill-opacity:1;" />
    <path class="col1 subline"
       id="path45"
       d="M 369.359375 286.832031 C 368.234375 287.375 365.746094 288 362.5625 288 C 354.246094 288 349.195312 282.792969 349.195312 274.789062 C 349.195312 266.164062 355.21875 260.957031 363.222656 260.957031 C 366.371094 260.957031 368.585938 261.617188 369.554688 262.117188 L 368.546875 265.929688 C 367.300781 265.386719 365.554688 264.917969 363.414062 264.917969 C 358.09375 264.917969 354.246094 268.257812 354.246094 274.554688 C 354.246094 280.34375 357.589844 283.996094 363.378906 283.996094 C 365.277344 283.996094 367.300781 283.609375 368.585938 283.0625 L 369.359375 286.832031 "
       style=" stroke:none;fill-rule:nonzero;fill-opacity:1;" />
    <path class="col1 subline"
       id="path47"
       d="M 380.402344 265.386719 L 372.9375 265.386719 L 372.9375 261.382812 L 392.71875 261.382812 L 392.71875 265.386719 L 385.179688 265.386719 L 385.179688 287.570312 L 380.402344 287.570312 L 380.402344 265.386719 "
       style=" stroke:none;fill-rule:nonzero;fill-opacity:1;" />
    <path class="col1 subline"
       id="path49"
       d="M 412.382812 275.953125 L 402.515625 275.953125 L 402.515625 283.648438 L 413.550781 283.648438 L 413.550781 287.570312 L 397.734375 287.570312 L 397.734375 261.378906 L 412.96875 261.378906 L 412.96875 265.308594 L 402.515625 265.308594 L 402.515625 272.070312 L 412.382812 272.070312 L 412.382812 275.953125 "
       style=" stroke:none;fill-rule:nonzero;fill-opacity:1;" />
    <path class="col1 subline"
       id="path51"
       d="M 419.691406 261.730469 C 421.828125 261.421875 424.472656 261.1875 427.308594 261.1875 C 432.207031 261.1875 435.546875 262.199219 437.957031 264.21875 C 440.519531 266.277344 442.074219 269.425781 442.074219 273.855469 C 442.074219 278.558594 440.480469 282.015625 437.996094 284.269531 C 435.390625 286.640625 431.234375 287.84375 426.140625 287.84375 C 423.382812 287.84375 421.285156 287.6875 419.691406 287.492188 Z M 424.472656 283.957031 C 425.132812 284.074219 426.140625 284.074219 427.113281 284.074219 C 433.328125 284.117188 437.019531 280.65625 437.019531 274.011719 C 437.0625 268.257812 433.722656 264.917969 427.738281 264.917969 C 426.222656 264.917969 425.171875 265.035156 424.472656 265.191406 L 424.472656 283.957031 "
       style=" stroke:none;fill-rule:nonzero;fill-opacity:1;" />
    <path class="col1 subline"
       id="path53"
       d="M 463.183594 265.386719 L 455.722656 265.386719 L 455.722656 261.382812 L 475.5 261.382812 L 475.5 265.386719 L 467.960938 265.386719 L 467.960938 287.570312 L 463.183594 287.570312 L 463.183594 265.386719 "
       style=" stroke:none;fill-rule:nonzero;fill-opacity:1;" />
    <path class="col1 subline"
       id="path55"
       d="M 495.164062 275.953125 L 485.296875 275.953125 L 485.296875 283.648438 L 496.328125 283.648438 L 496.328125 287.570312 L 480.519531 287.570312 L 480.519531 261.378906 L 495.75 261.378906 L 495.75 265.308594 L 485.296875 265.308594 L 485.296875 272.070312 L 495.164062 272.070312 L 495.164062 275.953125 "
       style=" stroke:none;fill-rule:nonzero;fill-opacity:1;" />
    <path class="col1 subline"
       id="path57"
       d="M 516.464844 287.570312 L 513.664062 282.363281 C 512.539062 280.34375 511.800781 278.945312 511.023438 277.429688 L 510.945312 277.429688 C 510.320312 278.945312 509.625 280.34375 508.574219 282.363281 L 505.972656 287.570312 L 500.492188 287.570312 L 508.261719 274.320312 L 500.765625 261.378906 L 506.28125 261.378906 L 509.121094 266.785156 C 509.972656 268.414062 510.597656 269.699219 511.253906 271.171875 L 511.371094 271.171875 C 512.070312 269.539062 512.617188 268.378906 513.433594 266.785156 L 516.230469 261.378906 L 521.707031 261.378906 L 514.050781 274.167969 L 522.019531 287.570312 L 516.464844 287.570312 "
       style=" stroke:none;fill-rule:nonzero;fill-opacity:1;" />
    <path class="col1 subline"
       id="path59"
       d="M 532.515625 265.386719 L 525.054688 265.386719 L 525.054688 261.382812 L 544.832031 261.382812 L 544.832031 265.386719 L 537.296875 265.386719 L 537.296875 287.570312 L 532.515625 287.570312 L 532.515625 265.386719 "
       style=" stroke:none;fill-rule:nonzero;fill-opacity:1;" />
    <path class="col1 subline"
       id="path61"
       d="M 565.082031 280.152344 L 562.828125 287.570312 L 557.894531 287.570312 L 566.289062 261.378906 L 572.390625 261.378906 L 580.898438 287.570312 L 575.730469 287.570312 L 573.355469 280.152344 Z M 572.585938 276.539062 L 570.519531 270.089844 C 570.019531 268.492188 569.589844 266.707031 569.203125 265.191406 L 569.125 265.191406 C 568.734375 266.707031 568.308594 268.53125 567.882812 270.089844 L 565.863281 276.539062 L 572.585938 276.539062 "
       style=" stroke:none;fill-rule:nonzero;fill-opacity:1;" />
    <path class="col1 subline"
       id="path63"
       d="M 586.460938 287.570312 L 586.460938 261.378906 L 591.9375 261.378906 L 598.699219 272.609375 C 600.40625 275.527344 601.960938 278.558594 603.167969 281.390625 L 603.246094 281.390625 C 602.894531 277.898438 602.816406 274.515625 602.816406 270.511719 L 602.816406 261.378906 L 607.246094 261.378906 L 607.246094 287.570312 L 602.277344 287.570312 L 595.433594 276.03125 C 593.765625 273.15625 592.058594 269.96875 590.773438 267.019531 L 590.613281 267.054688 C 590.8125 270.4375 590.886719 273.894531 590.886719 278.207031 L 590.886719 287.570312 L 586.460938 287.570312 "
       style=" stroke:none;fill-rule:nonzero;fill-opacity:1;" />
    <path class="col1 subline"
       id="path65"
       d="M 619.957031 280.152344 L 617.707031 287.570312 L 612.769531 287.570312 L 621.167969 261.378906 L 627.261719 261.378906 L 635.773438 287.570312 L 630.605469 287.570312 L 628.234375 280.152344 Z M 627.460938 276.539062 L 625.398438 270.089844 C 624.894531 268.492188 624.46875 266.707031 624.082031 265.191406 L 624 265.191406 C 623.613281 266.707031 623.183594 268.53125 622.757812 270.089844 L 620.738281 276.539062 L 627.460938 276.539062 "
       style=" stroke:none;fill-rule:nonzero;fill-opacity:1;" />
    <path class="col1 subline"
       id="path67"
       d="M 641.375 261.378906 L 646.152344 261.378906 L 646.152344 283.570312 L 656.921875 283.570312 L 656.921875 287.570312 L 641.375 287.570312 L 641.375 261.378906 "
       style=" stroke:none;fill-rule:nonzero;fill-opacity:1;" />
    <path class="col1 subline"
       id="path69"
       d="M 668.421875 287.570312 L 668.421875 276.65625 L 660.144531 261.378906 L 665.628906 261.378906 L 668.734375 268.105469 C 669.628906 270.050781 670.289062 271.523438 671.027344 273.308594 L 671.105469 273.308594 C 671.726562 271.644531 672.464844 270.011719 673.359375 268.105469 L 676.507812 261.378906 L 681.90625 261.378906 L 673.203125 276.539062 L 673.203125 287.570312 L 668.421875 287.570312 "
       style=" stroke:none;fill-rule:nonzero;fill-opacity:1;" />
    <path class="col1 subline"
       id="path71"
       d="M 693.332031 265.386719 L 685.875 265.386719 L 685.875 261.382812 L 705.652344 261.382812 L 705.652344 265.386719 L 698.113281 265.386719 L 698.113281 287.570312 L 693.332031 287.570312 L 693.332031 265.386719 "
       style=" stroke:none;fill-rule:nonzero;fill-opacity:1;" />
    <path class="col1 subline"
       id="path73"
       d="M 712.613281 287.570312 L 717.394531 287.570312 L 717.394531 261.378906 L 712.613281 261.378906 Z M 712.613281 287.570312 "
       style=" stroke:none;fill-rule:nonzero;fill-opacity:1;" />
    <path class="col1 subline"
       id="path75"
       d="M 743.582031 286.832031 C 742.457031 287.375 739.96875 288 736.78125 288 C 728.46875 288 723.414062 282.792969 723.414062 274.789062 C 723.414062 266.164062 729.441406 260.957031 737.445312 260.957031 C 740.59375 260.957031 742.808594 261.617188 743.777344 262.117188 L 742.769531 265.929688 C 741.523438 265.386719 739.777344 264.917969 737.640625 264.917969 C 732.316406 264.917969 728.46875 268.257812 728.46875 274.554688 C 728.46875 280.34375 731.8125 283.996094 737.601562 283.996094 C 739.503906 283.996094 741.523438 283.609375 742.808594 283.0625 L 743.582031 286.832031 "
       style=" stroke:none;fill-rule:nonzero;fill-opacity:1;" />
    <path class="col1 subline"
       id="path77"
       d="M 749.535156 282.363281 C 751.046875 283.261719 753.417969 284.035156 755.867188 284.035156 C 758.898438 284.035156 760.609375 282.597656 760.609375 280.460938 C 760.609375 278.480469 759.285156 277.316406 755.984375 276.109375 C 751.632812 274.554688 748.875 272.257812 748.875 268.492188 C 748.875 264.183594 752.449219 260.957031 758.15625 260.957031 C 760.996094 260.957031 763.058594 261.578125 764.414062 262.277344 L 763.285156 266.121094 C 762.316406 265.621094 760.492188 264.878906 758.046875 264.878906 C 755.015625 264.878906 753.730469 266.472656 753.730469 268.027344 C 753.730469 270.046875 755.246094 270.980469 758.742188 272.339844 C 763.285156 274.046875 765.464844 276.34375 765.464844 280.113281 C 765.464844 284.347656 762.277344 288 755.554688 288 C 752.757812 288 749.882812 287.222656 748.445312 286.328125 L 749.535156 282.363281 "
       style=" stroke:none;fill-rule:nonzero;fill-opacity:1;" />
    <path class="col1"
       id="path79"
       d="M 505.335938 105.328125 C 504.800781 104.09375 503.265625 103.078125 501.914062 103.078125 L 493.078125 103.078125 C 491.730469 103.078125 490.191406 104.09375 489.65625 105.328125 L 439.132812 223.148438 C 438.597656 224.382812 439.269531 225.398438 440.617188 225.398438 L 448.621094 225.398438 C 449.972656 225.398438 451.511719 224.382812 452.050781 223.148438 L 467.972656 186.433594 C 468.515625 185.203125 470.050781 184.1875 471.398438 184.1875 L 507.980469 184.1875 C 509.324219 184.1875 509.992188 183.175781 509.46875 181.933594 L 506.667969 175.351562 C 506.136719 174.109375 504.597656 173.097656 503.246094 173.097656 L 476.03125 173.097656 C 474.6875 173.097656 474.023438 172.082031 474.546875 170.84375 L 496.617188 119.242188 C 497.144531 118.003906 498.007812 118.007812 498.523438 119.25 L 508.46875 142.96875 C 508.984375 144.210938 509.5 145.355469 509.597656 145.503906 C 509.703125 145.652344 510.355469 147.105469 510.882812 148.347656 L 539.648438 215.894531 C 540.183594 217.128906 540.664062 218.292969 540.71875 218.464844 C 540.78125 218.640625 541.324219 220.117188 541.855469 221.355469 L 542.625 223.148438 C 543.15625 224.382812 544.703125 225.398438 546.046875 225.398438 L 554.550781 225.398438 C 555.902344 225.398438 556.570312 224.382812 556.03125 223.148438 L 505.335938 105.328125 "
       style=" stroke:none;fill-rule:nonzero;fill-opacity:1;" />
    <path class="col2"
       id="path81"
       d="M 323.78125 169.117188 C 325.132812 169.117188 326.230469 168.015625 326.230469 166.664062 L 326.230469 160.488281 C 326.230469 159.140625 325.132812 158.039062 323.78125 158.039062 L 293.65625 158.039062 C 292.304688 158.039062 291.203125 159.140625 291.203125 160.488281 L 291.203125 166.664062 C 291.203125 168.015625 292.304688 169.117188 293.65625 169.117188 L 323.78125 169.117188 "
       style=" stroke:none;fill-rule:nonzero;fill-opacity:1;" />
    <path class="col1"
       id="path83"
       d="M 326.957031 105.53125 C 326.957031 104.183594 325.851562 103.074219 324.507812 103.074219 L 262.542969 103.074219 C 261.199219 103.074219 260.089844 104.183594 260.089844 105.53125 L 260.089844 222.949219 C 260.089844 224.292969 261.199219 225.394531 262.542969 225.394531 L 324.507812 225.394531 C 325.851562 225.394531 326.957031 224.292969 326.957031 222.949219 L 326.957031 216.757812 C 326.957031 215.414062 325.851562 214.308594 324.507812 214.308594 L 274.785156 214.308594 C 273.433594 214.308594 272.332031 213.207031 272.332031 211.859375 L 272.332031 171.570312 C 272.332031 170.21875 272.339844 169.113281 272.339844 169.113281 C 272.339844 169.113281 272.351562 168.015625 272.351562 166.664062 L 272.351562 160.492188 C 272.351562 159.144531 272.347656 158.039062 272.347656 158.039062 C 272.347656 158.039062 272.332031 156.9375 272.332031 155.589844 L 272.332031 116.625 C 272.332031 115.273438 273.433594 114.171875 274.785156 114.171875 L 324.507812 114.171875 C 325.851562 114.171875 326.957031 113.066406 326.957031 111.71875 L 326.957031 105.53125 "
       style=" stroke:none;fill-rule:nonzero;fill-opacity:1;" />
    <path class="col1"
       id="path85"
       d="M 174.0625 103.210938 L 149.386719 103.085938 C 145.445312 103.085938 143.835938 102.96875 143.835938 106.410156 L 143.820312 222.996094 C 143.820312 224.34375 144.929688 225.449219 146.273438 225.449219 L 153.628906 225.449219 C 154.976562 225.449219 156.078125 224.34375 156.078125 222.996094 L 156.078125 119.703125 C 156.078125 114.363281 156.804688 114.179688 161.628906 114.179688 L 173.296875 114.179688 C 201.761719 114.179688 214.132812 121.632812 214.335938 141.980469 C 214.441406 152.179688 210.101562 158.546875 204.335938 162.554688 L 202.84375 163.710938 C 201.742188 164.488281 201.554688 166.140625 202.4375 167.394531 L 206.46875 173.121094 C 207.34375 174.375 208.96875 174.765625 210.070312 173.984375 L 210.746094 173.566406 C 221.242188 167.335938 226.761719 156.800781 226.761719 142.476562 C 226.761719 116.992188 209.726562 103.3125 174.0625 103.210938 "
       style=" stroke:none;fill-rule:nonzero;fill-opacity:1;" />
    <path class="col1"
       id="path87"
       d="M 220.800781 220.960938 L 211.730469 207.992188 L 186.898438 172.285156 C 184.144531 168.832031 183.921875 169.042969 179.742188 169.042969 L 175.597656 169.042969 C 172.183594 169.042969 171.183594 170.335938 173.371094 173.484375 L 182.4375 186.453125 L 207.273438 222.164062 C 210.027344 225.617188 211.265625 225.402344 214.429688 225.402344 L 218.574219 225.402344 C 221.988281 225.402344 222.988281 224.113281 220.800781 220.960938 "
       style=" stroke:none;fill-rule:nonzero;fill-opacity:1;" />
    <path class="col1"
       id="path89"
       d="M 114.152344 187.261719 L 109.453125 187.261719 C 107.6875 187.308594 105.625 187.789062 103.730469 190.464844 C 93.515625 204.152344 79.207031 213.789062 62.34375 213.789062 C 35.011719 213.789062 12.019531 191.59375 12.019531 163.945312 C 12.019531 135.496094 33.59375 113.769531 61.71875 113.769531 C 78.332031 113.769531 92.238281 119.832031 102.304688 135.660156 L 103.03125 136.851562 C 104.988281 139.875 107.171875 140.378906 109.019531 140.425781 L 113.171875 140.425781 C 116.992188 140.378906 116.539062 138.195312 116.09375 136.925781 C 115.742188 135.925781 114.824219 134.046875 114.417969 133.257812 C 104.792969 114.382812 84.703125 102.902344 61.238281 102.902344 C 26.078125 102.902344 0.0351562 129.113281 0.0351562 164.425781 C 0.0351562 198.945312 27.804688 225.636719 62.160156 225.636719 C 90 225.636719 108.515625 206.929688 116.136719 192.863281 C 116.46875 192.121094 116.96875 191.066406 117.074219 190.761719 C 117.519531 189.492188 117.976562 187.308594 114.152344 187.261719 "
       style=" stroke:none;fill-rule:nonzero;fill-opacity:1;" />
    <g
       id="g93"
       clip-rule="nonzero"
       clip-path="url(#clip1)">
      <path class="col2"
         id="path91"
         d="M 674.191406 11.472656 C 685.101562 11.472656 695.679688 13.605469 705.628906 17.816406 C 715.246094 21.886719 723.890625 27.710938 731.304688 35.132812 C 738.730469 42.554688 744.558594 51.195312 748.621094 60.8125 C 752.832031 70.761719 754.964844 81.339844 754.964844 92.25 C 754.964844 103.160156 752.832031 113.734375 748.621094 123.6875 C 744.558594 133.300781 738.730469 141.941406 731.304688 149.367188 C 723.890625 156.789062 715.246094 162.613281 705.628906 166.679688 C 695.679688 170.890625 685.101562 173.023438 674.191406 173.023438 L 596.917969 173.023438 C 596.917969 173.023438 593.417969 173.023438 593.417969 169.523438 L 593.417969 92.25 C 593.417969 81.339844 595.550781 70.761719 599.757812 60.8125 C 603.828125 51.195312 609.652344 42.554688 617.074219 35.132812 C 624.496094 27.710938 633.136719 21.886719 642.753906 17.816406 C 652.707031 13.605469 663.277344 11.472656 674.191406 11.472656 M 674.191406 0.394531 C 623.460938 0.394531 582.335938 41.523438 582.335938 92.25 L 582.335938 180.605469 C 582.335938 180.605469 582.335938 184.105469 585.832031 184.105469 L 674.191406 184.105469 C 724.917969 184.105469 766.046875 142.976562 766.046875 92.25 C 766.046875 41.523438 724.917969 0.394531 674.191406 0.394531 "
         style=" stroke:none;fill-rule:nonzero;fill-opacity:1;" />
    </g>
  </g>
</svg>
